<svg width="800" height="800" viewBox="0 0 800 800" fill="none" xmlns="http://www.w3.org/2000/svg">
<path d="M711.112 133.333H88.8898C77.1024 133.333 65.7977 138.016 57.4628 146.35C49.1278 154.685 44.4453 165.99 44.4453 177.777V622.222C44.4453 634.009 49.1278 645.314 57.4628 653.649C65.7977 661.984 77.1024 666.666 88.8898 666.666H422.223L434.89 651.111L455.556 625.777L453.556 622.222H88.8898V177.777H711.112V368C727.994 378.928 743.002 392.51 755.556 408.222V177.777C755.556 165.99 750.874 154.685 742.539 146.35C734.204 138.016 722.899 133.333 711.112 133.333Z" fill="white"/>
<path d="M533.332 266.667H155.555V302.223H533.332V266.667Z" fill="white"/>
<path d="M399.999 355.556H155.555V391.111H399.999V355.556Z" fill="white"/>
<path d="M377.777 511.111H155.555V546.667H377.777V511.111Z" fill="white"/>
<path d="M610.221 382.889C581.784 382.663 553.94 391.021 530.329 406.871C506.717 422.72 488.436 445.324 477.874 471.728C467.313 498.132 464.962 527.108 471.129 554.869C477.297 582.63 491.695 607.885 512.443 627.334L469.332 680L489.332 760.223L570.666 661.111C596.411 668.724 623.809 668.724 649.555 661.111L730.888 760.223L750.888 680L707.777 627.334C728.525 607.885 742.923 582.63 749.091 554.869C755.258 527.108 752.908 498.132 742.346 471.728C731.784 445.324 713.503 422.72 689.892 406.871C666.28 391.021 638.436 382.663 609.999 382.889H610.221ZM610.221 620.223C591.337 619.96 572.952 614.12 557.378 603.437C541.804 592.754 529.736 577.706 522.69 560.183C515.645 542.66 513.938 523.446 517.783 504.956C521.627 486.465 530.853 469.524 544.299 456.262C557.746 443.001 574.812 434.01 593.354 430.421C611.896 426.833 631.085 428.806 648.508 436.092C665.932 443.379 680.812 455.654 691.279 471.375C701.745 487.095 707.331 505.559 707.332 524.445C707.098 550.005 696.749 574.432 678.549 592.381C660.35 610.331 635.782 620.341 610.221 620.223Z" fill="white"/>
</svg>
